<mxfile host="app.diagrams.net" modified="2024-07-18T04:48:26.782Z" agent="Mozilla/5.0 (Windows NT 10.0; Win64; x64) AppleWebKit/537.36 (KHTML, like Gecko) Chrome/126.0.0.0 Safari/537.36 Edg/126.0.0.0" etag="9DI6_p-pGavtK1ckTI0o" version="24.7.1" type="onedrive">
  <diagram name="ページ1" id="ouKmCOWLs3GPfwBmR5D_">
    <mxGraphModel grid="0" page="0" gridSize="10" guides="1" tooltips="1" connect="1" arrows="1" fold="1" pageScale="1" pageWidth="827" pageHeight="1169" math="0" shadow="0">
      <root>
        <mxCell id="0" />
        <mxCell id="1" parent="0" />
        <mxCell id="Ol-cf7nvVAvJivu-LRin-9" style="edgeStyle=none;curved=1;rounded=0;orthogonalLoop=1;jettySize=auto;html=1;exitX=0.5;exitY=1;exitDx=0;exitDy=0;fontSize=12;startSize=8;endSize=8;" edge="1" parent="1" source="Ol-cf7nvVAvJivu-LRin-1" target="Ol-cf7nvVAvJivu-LRin-2">
          <mxGeometry relative="1" as="geometry" />
        </mxCell>
        <mxCell id="Ol-cf7nvVAvJivu-LRin-1" value="クラスNode定義&lt;div&gt;開始&lt;/div&gt;" style="rounded=0;whiteSpace=wrap;html=1;" vertex="1" parent="1">
          <mxGeometry x="23" y="-100" width="120" height="60" as="geometry" />
        </mxCell>
        <mxCell id="Ol-cf7nvVAvJivu-LRin-10" style="edgeStyle=none;curved=1;rounded=0;orthogonalLoop=1;jettySize=auto;html=1;exitX=0.5;exitY=1;exitDx=0;exitDy=0;fontSize=12;startSize=8;endSize=8;" edge="1" parent="1" source="Ol-cf7nvVAvJivu-LRin-2" target="Ol-cf7nvVAvJivu-LRin-7">
          <mxGeometry relative="1" as="geometry" />
        </mxCell>
        <mxCell id="Ol-cf7nvVAvJivu-LRin-2" value="__init__関数&lt;div&gt;selfで定義&lt;/div&gt;" style="rounded=1;whiteSpace=wrap;html=1;" vertex="1" parent="1">
          <mxGeometry x="23" y="-16" width="120" height="60" as="geometry" />
        </mxCell>
        <mxCell id="Ol-cf7nvVAvJivu-LRin-14" style="edgeStyle=none;curved=1;rounded=0;orthogonalLoop=1;jettySize=auto;html=1;exitX=0.5;exitY=1;exitDx=0;exitDy=0;entryX=0.5;entryY=0;entryDx=0;entryDy=0;fontSize=12;startSize=8;endSize=8;" edge="1" parent="1" source="Ol-cf7nvVAvJivu-LRin-3" target="Ol-cf7nvVAvJivu-LRin-5">
          <mxGeometry relative="1" as="geometry" />
        </mxCell>
        <UserObject label="self.left = left" link="self.left = left" id="Ol-cf7nvVAvJivu-LRin-3">
          <mxCell style="rounded=1;whiteSpace=wrap;html=1;" vertex="1" parent="1">
            <mxGeometry x="23" y="321" width="120" height="60" as="geometry" />
          </mxCell>
        </UserObject>
        <mxCell id="Ol-cf7nvVAvJivu-LRin-13" style="edgeStyle=none;curved=1;rounded=0;orthogonalLoop=1;jettySize=auto;html=1;exitX=0.5;exitY=1;exitDx=0;exitDy=0;fontSize=12;startSize=8;endSize=8;" edge="1" parent="1" source="Ol-cf7nvVAvJivu-LRin-4" target="Ol-cf7nvVAvJivu-LRin-3">
          <mxGeometry relative="1" as="geometry" />
        </mxCell>
        <mxCell id="Ol-cf7nvVAvJivu-LRin-4" value="self.profile = profile" style="rounded=1;whiteSpace=wrap;html=1;" vertex="1" parent="1">
          <mxGeometry x="23" y="234" width="120" height="60" as="geometry" />
        </mxCell>
        <mxCell id="Ol-cf7nvVAvJivu-LRin-15" style="edgeStyle=none;curved=1;rounded=0;orthogonalLoop=1;jettySize=auto;html=1;exitX=0.5;exitY=1;exitDx=0;exitDy=0;fontSize=12;startSize=8;endSize=8;" edge="1" parent="1" source="Ol-cf7nvVAvJivu-LRin-5" target="Ol-cf7nvVAvJivu-LRin-8">
          <mxGeometry relative="1" as="geometry" />
        </mxCell>
        <UserObject label="self.right = right" link="self.right = right" id="Ol-cf7nvVAvJivu-LRin-5">
          <mxCell style="rounded=1;whiteSpace=wrap;html=1;" vertex="1" parent="1">
            <mxGeometry x="23" y="408" width="120" height="60" as="geometry" />
          </mxCell>
        </UserObject>
        <mxCell id="Ol-cf7nvVAvJivu-LRin-12" style="edgeStyle=none;curved=1;rounded=0;orthogonalLoop=1;jettySize=auto;html=1;exitX=0.5;exitY=1;exitDx=0;exitDy=0;fontSize=12;startSize=8;endSize=8;" edge="1" parent="1" source="Ol-cf7nvVAvJivu-LRin-6" target="Ol-cf7nvVAvJivu-LRin-4">
          <mxGeometry relative="1" as="geometry" />
        </mxCell>
        <UserObject label="self.name = name" link="self.name = name" id="Ol-cf7nvVAvJivu-LRin-6">
          <mxCell style="rounded=1;whiteSpace=wrap;html=1;" vertex="1" parent="1">
            <mxGeometry x="23" y="151" width="120" height="60" as="geometry" />
          </mxCell>
        </UserObject>
        <mxCell id="Ol-cf7nvVAvJivu-LRin-11" style="edgeStyle=none;curved=1;rounded=0;orthogonalLoop=1;jettySize=auto;html=1;exitX=0.5;exitY=1;exitDx=0;exitDy=0;fontSize=12;startSize=8;endSize=8;" edge="1" parent="1" source="Ol-cf7nvVAvJivu-LRin-7" target="Ol-cf7nvVAvJivu-LRin-6">
          <mxGeometry relative="1" as="geometry" />
        </mxCell>
        <UserObject label="self.number = number" link="self.number = number" id="Ol-cf7nvVAvJivu-LRin-7">
          <mxCell style="rounded=1;whiteSpace=wrap;html=1;" vertex="1" parent="1">
            <mxGeometry x="23" y="67" width="120" height="60" as="geometry" />
          </mxCell>
        </UserObject>
        <mxCell id="Ol-cf7nvVAvJivu-LRin-8" value="終了" style="rounded=0;whiteSpace=wrap;html=1;" vertex="1" parent="1">
          <mxGeometry x="21" y="495" width="120" height="60" as="geometry" />
        </mxCell>
      </root>
    </mxGraphModel>
  </diagram>
</mxfile>
